<svg xmlns="http://www.w3.org/2000/svg" viewBox="0 0 128 128" width="128" height="128">
  <!-- lighthouse beam rays -->
  <g opacity="0.25">
    <path d="M64 28 L20 8 L30 18 Z" fill="#60a5fa"/>
    <path d="M64 28 L108 8 L98 18 Z" fill="#60a5fa"/>
    <path d="M64 28 L8 20 L22 26 Z" fill="#3b82f6"/>
    <path d="M64 28 L120 20 L106 26 Z" fill="#3b82f6"/>
  </g>

  <!-- light glow -->
  <circle cx="64" cy="34" r="10" fill="#60a5fa" opacity="0.3"/>
  <circle cx="64" cy="34" r="6" fill="#93bbfd" opacity="0.5"/>

  <!-- lighthouse top cap -->
  <rect x="56" y="24" width="16" height="6" rx="2" fill="#1e293b"/>

  <!-- light housing -->
  <rect x="52" y="30" width="24" height="12" rx="3" fill="#3b82f6"/>
  <rect x="56" y="32" width="16" height="8" rx="2" fill="#60a5fa" opacity="0.7"/>

  <!-- gallery railing -->
  <rect x="48" y="42" width="32" height="4" rx="1" fill="#1e293b"/>

  <!-- tower body -->
  <path d="M52 46 L50 100 L78 100 L76 46 Z" fill="#f1f5f9"/>

  <!-- tower stripes -->
  <path d="M51.4 58 L76.6 58 L76.4 62 L51.2 62 Z" fill="#ef4444"/>
  <path d="M50.8 74 L77.2 74 L77 78 L50.6 78 Z" fill="#ef4444"/>
  <path d="M50.2 90 L77.8 90 L77.6 94 L50 94 Z" fill="#ef4444"/>

  <!-- base -->
  <rect x="44" y="100" width="40" height="6" rx="2" fill="#1e293b"/>
  <rect x="38" y="106" width="52" height="6" rx="2" fill="#0f172a"/>

  <!-- rocks/ground -->
  <ellipse cx="64" cy="116" rx="36" ry="6" fill="#334155" opacity="0.4"/>
</svg>
